<?xml version="1.0" standalone="no"?>
<!DOCTYPE svg PUBLIC "-//W3C//DTD SVG 20010904//EN"
 "http://www.w3.org/TR/2001/REC-SVG-20010904/DTD/svg10.dtd">
<svg version="1.0" xmlns="http://www.w3.org/2000/svg"
 width="217.000000pt" height="161.000000pt" viewBox="0 0 217.000000 161.000000"
 preserveAspectRatio="xMidYMid meet">

<g transform="translate(0.000000,161.000000) scale(0.100000,-0.100000)"
fill="#000000" stroke="none">
<path d="M1920 1600 c0 -5 5 -10 10 -10 6 0 10 5 10 10 0 6 -4 10 -10 10 -5 0
-10 -4 -10 -10z"/>
<path d="M2091 1584 c-2 -41 -34 -74 -72 -74 -18 0 -28 -4 -24 -10 3 -5 17
-10 31 -10 13 0 33 -9 45 -21 17 -17 20 -29 15 -67 -4 -35 -1 -56 12 -80 16
-30 20 -32 31 -18 8 9 20 16 27 16 8 0 14 7 14 15 0 8 -6 15 -13 15 -43 0 -64
92 -29 123 10 10 24 17 30 17 7 0 12 5 12 10 0 6 -6 10 -13 10 -21 0 -55 42
-60 75 l-4 30 -2 -31z"/>
<path d="M86 1535 c4 -8 8 -15 10 -15 2 0 4 7 4 15 0 8 -4 15 -10 15 -5 0 -7
-7 -4 -15z"/>
<path d="M820 1513 c-92 -9 -176 -25 -185 -34 -7 -7 1 -9 25 -5 148 25 189 28
226 18 l39 -12 -53 5 c-29 2 -94 -3 -144 -11 -65 -12 -93 -13 -101 -5 -6 6
-20 11 -32 11 -18 -1 -18 -2 5 -16 l25 -15 -25 6 c-14 4 -36 9 -50 12 -24 5
-24 4 3 -11 24 -13 43 -13 175 -1 291 29 747 7 900 -41 13 -5 14 -4 3 4 -11 8
-11 10 0 14 8 3 -12 13 -43 23 -47 15 -62 16 -83 7 -35 -16 -56 -15 -27 2 22
12 19 13 -45 25 -133 23 -240 31 -408 29 -93 -1 -186 -3 -205 -5z m288 -10
c-38 -2 -98 -2 -135 0 -38 2 -7 3 67 3 74 0 105 -1 68 -3z m227 -15 c39 -6 80
-11 93 -12 12 -1 22 -4 22 -8 0 -11 -11 -10 -105 7 -43 8 -100 12 -125 9 -33
-4 -41 -3 -30 5 19 14 57 13 145 -1z m255 -43 c47 -18 27 -18 -30 -1 -25 8
-36 15 -25 15 11 0 36 -7 55 -14z"/>
<path d="M59 1473 c-13 -16 -12 -17 4 -4 9 7 17 15 17 17 0 8 -8 3 -21 -13z"/>
<path d="M480 1450 c-18 -12 -2 -12 25 0 13 6 15 9 5 9 -8 0 -22 -4 -30 -9z"/>
<path d="M501 1439 c-18 -6 -31 -12 -29 -14 7 -7 88 8 88 16 0 11 -15 10 -59
-2z"/>
<path d="M12 1415 c0 -16 2 -22 5 -12 2 9 2 23 0 30 -3 6 -5 -1 -5 -18z"/>
<path d="M435 1431 c-6 -11 13 -26 22 -17 4 3 0 6 -8 6 -11 0 -11 2 1 10 9 6
10 10 3 10 -6 0 -14 -4 -18 -9z"/>
<path d="M760 1373 c0 -6 8 -17 18 -24 16 -13 16 -13 2 6 -8 11 -16 22 -17 24
-2 2 -3 0 -3 -6z"/>
<path d="M813 1344 c12 -19 26 -34 32 -34 5 0 4 5 -2 11 -6 6 -10 17 -7 23 2
6 -7 16 -20 22 l-24 11 21 -33z"/>
<path d="M906 1346 c3 -9 -2 -16 -13 -18 -10 -2 44 -3 120 0 92 2 137 0 137
-7 0 -6 -4 -11 -8 -11 -5 0 -16 -6 -26 -13 -16 -12 -15 -13 8 -12 14 1 29 4
32 8 4 4 16 5 28 3 12 -2 15 -1 8 1 -7 3 -10 9 -7 14 4 5 -1 9 -9 9 -9 0 -16
5 -16 10 0 6 19 10 43 10 31 0 38 -3 27 -10 -18 -12 -11 -12 68 0 61 8 92 6
92 -9 0 -3 -28 -8 -62 -9 -87 -5 -103 -18 -32 -25 69 -7 93 -28 121 -107 17
-49 33 -65 33 -35 0 8 -11 45 -25 82 -14 37 -23 73 -21 80 3 7 1 15 -5 19 -6
3 -8 12 -5 19 4 11 -41 14 -244 15 -213 0 -249 -2 -244 -14z"/>
<path d="M1435 1330 c-17 -18 -17 -20 -1 -20 9 0 19 7 23 15 9 25 -2 27 -22 5z"/>
<path d="M760 1238 c0 -77 3 -98 14 -98 8 0 18 18 24 43 7 24 24 55 42 72 27
26 36 29 102 29 l73 1 3 -318 c1 -183 6 -316 11 -312 5 3 7 -4 4 -15 -8 -31
-52 -60 -89 -60 -19 0 -34 -4 -34 -10 0 -6 61 -10 163 -10 126 1 158 3 142 12
-11 6 -30 22 -42 35 -16 17 -33 23 -63 23 -40 0 -52 14 -30 36 7 7 10 111 8
307 -3 262 -5 298 -20 313 -23 23 -122 29 -176 11 -23 -8 -42 -11 -42 -6 0 5
-14 9 -31 9 -19 0 -37 7 -45 18 -11 14 -13 3 -14 -80z"/>
<path d="M1050 1316 c0 -2 7 -9 15 -16 9 -7 15 -8 15 -2 0 5 -7 12 -15 16 -8
3 -15 4 -15 2z"/>
<path d="M1430 1259 c0 -8 7 -24 16 -35 14 -18 15 -18 8 6 -8 31 -24 50 -24
29z"/>
<path d="M1180 1246 c0 -8 5 -18 10 -21 6 -3 10 1 10 9 0 8 -4 18 -10 21 -5 3
-10 -1 -10 -9z"/>
<path d="M1144 966 c1 -214 4 -280 14 -284 9 -3 12 54 12 262 0 157 -4 266 -9
266 -5 0 -12 8 -14 18 -3 9 -4 -109 -3 -262z"/>
<path d="M160 1162 c0 -12 3 -12 15 -2 8 7 15 13 15 15 0 1 -7 2 -15 2 -8 0
-15 -7 -15 -15z"/>
<path d="M490 1166 c0 -9 8 -16 20 -16 28 0 36 -27 16 -49 -12 -13 -13 -20 -4
-29 18 -18 52 16 36 35 -9 11 -9 17 3 24 11 7 10 9 -5 9 -12 0 -16 5 -12 16 3
8 2 13 -3 9 -5 -3 -12 1 -14 7 -4 10 -6 9 -6 -1 -1 -11 -4 -11 -16 -1 -12 10
-15 10 -15 -4z m59 -82 c-6 -7 -15 -11 -20 -8 -5 3 -3 11 4 18 16 18 31 8 16
-10z"/>
<path d="M654 1168 c3 -12 0 -18 -9 -18 -7 0 -16 -4 -19 -9 -3 -4 6 -6 19 -3
28 5 30 10 14 32 -9 13 -10 12 -5 -2z"/>
<path d="M1879 1171 c11 -7 11 -9 0 -13 -10 -3 -10 -6 -1 -12 7 -4 12 -3 12 3
0 6 8 8 18 5 14 -5 14 -3 -2 10 -11 9 -25 16 -30 16 -6 0 -5 -4 3 -9z"/>
<path d="M336 1161 c-3 -5 6 -8 20 -8 19 0 22 2 13 8 -18 11 -26 11 -33 0z"/>
<path d="M690 1160 c-13 -8 -12 -10 3 -10 9 0 17 5 17 10 0 12 -1 12 -20 0z"/>
<path d="M1507 1148 c-12 -44 -8 -108 7 -108 15 0 29 37 16 45 -4 3 -6 18 -5
34 3 39 -10 60 -18 29z"/>
<path d="M1666 1163 c-1 -1 -19 -3 -40 -5 -73 -5 -44 -15 42 -14 l87 1 0 -132
c0 -98 3 -129 12 -122 7 6 11 53 12 130 1 101 -1 120 -15 126 -9 3 -12 8 -5
12 5 4 -13 6 -40 6 -28 0 -51 -1 -53 -2z"/>
<path d="M180 1155 c0 -3 7 -16 15 -29 13 -20 15 -60 12 -262 -3 -249 -5 -274
-22 -286 -6 -4 -2 -8 9 -8 12 0 16 5 12 15 -4 10 2 19 17 25 12 5 16 9 10 9
-7 1 -13 6 -13 12 0 5 6 7 13 3 10 -6 10 -4 0 7 -9 8 -13 45 -13 106 0 77 3
94 18 103 15 10 15 11 0 6 -15 -4 -17 7 -16 122 1 75 6 133 12 141 8 10 8 13
0 8 -6 -3 -17 3 -24 14 -14 18 -30 26 -30 14z"/>
<path d="M575 1120 c-3 -5 -2 -10 4 -10 5 0 13 5 16 10 3 6 2 10 -4 10 -5 0
-13 -4 -16 -10z"/>
<path d="M481 1043 c-12 -16 -26 -34 -33 -42 -7 -8 -13 -22 -15 -30 -1 -9 9
-3 23 14 13 17 24 34 24 38 0 5 4 6 9 3 5 -3 8 2 7 12 0 9 5 16 12 14 8 -1 11
2 7 8 -9 14 -11 13 -34 -17z"/>
<path d="M1550 882 c0 -51 4 -92 9 -92 15 0 23 18 15 31 -4 7 -8 41 -9 76 -3
99 -15 87 -15 -15z"/>
<path d="M286 905 c-9 -26 -7 -32 5 -12 6 10 9 21 6 23 -2 3 -7 -2 -11 -11z"/>
<path d="M1608 898 c5 -5 16 -8 23 -6 8 3 3 7 -10 11 -17 4 -21 3 -13 -5z"/>
<path d="M420 889 c0 -5 5 -7 10 -4 6 3 10 8 10 11 0 2 -4 4 -10 4 -5 0 -10
-5 -10 -11z"/>
<path d="M1650 890 c0 -4 7 -7 15 -6 23 3 26 12 5 13 -11 1 -20 -2 -20 -7z"/>
<path d="M1696 884 c-5 -12 -16 -15 -40 -12 -19 2 -32 0 -30 -4 3 -4 35 -8 70
-8 l66 0 -4 -125 c-2 -83 0 -121 7 -114 6 5 12 61 15 124 l5 115 -28 9 c-15 6
-35 8 -45 5 -13 -5 -14 -4 -3 4 8 6 9 12 3 16 -5 3 -13 -1 -16 -10z"/>
<path d="M300 880 c0 -5 5 -10 11 -10 5 0 7 5 4 10 -3 6 -8 10 -11 10 -2 0 -4
-4 -4 -10z"/>
<path d="M369 861 c11 -7 11 -9 0 -14 -8 -3 -9 -6 -3 -6 6 -1 16 5 22 12 8 10
6 13 -11 14 -15 2 -18 0 -8 -6z"/>
<path d="M453 851 c0 -11 5 -18 9 -15 4 3 5 11 1 19 -7 21 -12 19 -10 -4z"/>
<path d="M400 815 c-9 -11 -6 -20 16 -42 16 -15 27 -29 26 -30 -9 -11 1 -13
13 -3 18 15 2 42 -20 34 -14 -6 -39 29 -28 39 3 4 14 2 24 -4 11 -5 19 -7 19
-5 0 3 -9 10 -19 15 -14 8 -22 7 -31 -4z m55 -54 c3 -5 2 -12 -3 -15 -5 -3 -9
1 -9 9 0 17 3 19 12 6z"/>
<path d="M500 779 c0 -5 5 -7 10 -4 6 3 10 8 10 11 0 2 -4 4 -10 4 -5 0 -10
-5 -10 -11z"/>
<path d="M463 715 c0 -8 4 -12 9 -9 4 3 8 9 8 15 0 5 -4 9 -8 9 -5 0 -9 -7 -9
-15z"/>
<path d="M1460 690 c0 -43 22 -117 34 -117 16 0 15 22 -2 39 -7 7 -12 18 -12
26 0 9 11 4 33 -14 17 -15 30 -34 29 -43 -3 -13 -1 -14 10 -3 11 11 7 19 -24
44 -21 16 -38 36 -38 44 0 8 -5 14 -11 14 -6 0 -9 7 -5 15 3 8 1 15 -4 15 -6
0 -10 -9 -10 -20z"/>
<path d="M541 693 c-2 -20 20 -26 35 -11 13 13 13 15 0 15 -8 0 -13 -4 -10 -9
3 -4 1 -8 -5 -8 -5 0 -12 6 -14 13 -4 9 -6 9 -6 0z"/>
<path d="M485 670 c19 -20 27 -20 31 3 1 7 -10 14 -24 15 -25 2 -25 2 -7 -18z"/>
<path d="M579 663 c-13 -16 -12 -17 4 -4 9 7 17 15 17 17 0 8 -8 3 -21 -13z"/>
<path d="M1180 649 c0 -13 -4 -18 -12 -13 -8 4 -10 3 -5 -2 5 -5 12 -9 15 -9
15 0 51 -32 45 -39 -4 -4 0 -4 9 -1 14 5 12 10 -8 30 -13 13 -24 31 -24 40 0
8 -4 15 -10 15 -5 0 -10 -9 -10 -21z"/>
<path d="M1840 661 c0 -6 4 -13 10 -16 6 -3 7 1 4 9 -7 18 -14 21 -14 7z"/>
<path d="M530 646 c0 -11 -4 -14 -12 -10 -6 4 1 -9 16 -29 16 -20 31 -37 33
-37 3 0 0 7 -7 15 -7 8 -9 15 -4 15 4 0 -1 7 -12 16 -18 15 -18 15 0 10 17 -6
17 -4 5 11 -7 10 -15 20 -16 22 -2 2 -3 -3 -3 -13z"/>
<path d="M662 606 c15 -13 24 -26 21 -29 -3 -3 4 -5 15 -4 12 0 20 2 19 4 -1
1 -20 14 -42 28 -39 25 -39 25 -13 1z"/>
<path d="M1729 583 c-13 -17 -13 -17 6 -3 11 8 22 16 24 17 2 2 0 3 -6 3 -6 0
-17 -8 -24 -17z"/>
<path d="M161 574 c0 -11 3 -14 6 -6 3 7 2 16 -1 19 -3 4 -6 -2 -5 -13z"/>
<path d="M335 579 c-4 -6 -4 -13 -1 -16 3 -4 6 -1 6 5 0 7 5 12 11 12 5 0 7
-4 4 -10 -3 -5 -1 -10 4 -10 6 0 11 7 11 15 0 17 -26 20 -35 4z"/>
<path d="M1278 583 c6 -2 18 -2 25 0 6 3 1 5 -13 5 -14 0 -19 -2 -12 -5z"/>
<path d="M1900 579 c0 -6 -8 -8 -19 -4 -11 3 -22 2 -24 -3 -3 -4 6 -8 20 -7
15 0 28 6 31 13 2 6 1 12 -2 12 -3 0 -6 -5 -6 -11z"/>
<path d="M604 568 c-3 -4 6 -8 20 -8 14 0 27 4 30 8 2 4 -7 8 -20 8 -14 0 -28
-4 -30 -8z"/>
<path d="M1730 474 c-58 -18 -99 -33 -92 -33 21 -1 196 50 207 60 13 13 2 10
-115 -27z"/>
<path d="M380 460 c8 -5 22 -9 30 -9 10 0 8 3 -5 9 -27 12 -43 12 -25 0z"/>
<path d="M1505 419 c-65 -15 -70 -17 -28 -13 55 6 161 32 128 32 -11 0 -56 -8
-100 -19z"/>
<path d="M310 412 c0 -10 -5 -23 -12 -30 -7 -7 -8 -12 -4 -12 5 0 2 -8 -5 -17
-11 -15 -10 -15 8 1 13 10 20 23 17 27 -3 5 -1 9 5 9 5 0 9 9 8 20 -2 25 -17
27 -17 2z"/>
<path d="M528 423 c7 -3 16 -2 19 1 4 3 -2 6 -13 5 -11 0 -14 -3 -6 -6z"/>
<path d="M180 405 c-7 -9 -11 -17 -9 -20 3 -2 10 5 17 15 14 24 10 26 -8 5z"/>
<path d="M568 413 c6 -2 18 -2 25 0 6 3 1 5 -13 5 -14 0 -19 -2 -12 -5z"/>
<path d="M618 403 c6 -2 18 -2 25 0 6 3 1 5 -13 5 -14 0 -19 -2 -12 -5z"/>
<path d="M1368 393 c12 -2 30 -2 40 0 9 3 -1 5 -23 4 -22 0 -30 -2 -17 -4z"/>
<path d="M391 373 c-10 -11 -10 -17 -2 -24 6 -5 9 -6 6 -3 -3 4 0 13 7 21 15
19 6 24 -11 6z"/>
<path d="M668 373 c7 -3 16 -2 19 1 4 3 -2 6 -13 5 -11 0 -14 -3 -6 -6z"/>
<path d="M1560 370 c0 -6 7 -10 15 -10 8 0 15 2 15 4 0 2 -7 6 -15 10 -8 3
-15 1 -15 -4z"/>
<path d="M1847 373 c-2 -5 -1 -28 3 -53 8 -50 11 -50 14 -2 1 17 -2 32 -8 32
-6 0 -5 4 3 9 8 5 9 11 3 15 -6 3 -13 3 -15 -1z"/>
<path d="M2106 307 c-18 -39 -47 -94 -65 -122 -30 -48 -31 -50 -11 -57 29 -11
35 -34 16 -63 -19 -28 -42 -32 -66 -10 -15 13 -20 11 -50 -20 l-34 -35 137 0
c127 0 137 1 137 19 0 10 -7 24 -15 31 -8 7 -15 25 -15 40 0 16 7 30 15 34 24
9 20 78 -5 94 -11 7 -20 21 -20 32 0 11 9 29 20 40 24 24 27 75 5 84 -12 4
-24 -13 -49 -67z"/>
<path d="M820 362 c0 -5 27 -10 59 -11 33 -1 71 -4 85 -7 28 -5 36 10 10 20
-24 9 -154 7 -154 -2z"/>
<path d="M1013 363 c-7 -2 -13 -9 -13 -15 0 -7 32 -9 100 -4 148 10 169 25 35
25 -60 -1 -116 -3 -122 -6z"/>
<path d="M344 345 c-10 -8 -14 -14 -9 -15 15 0 40 18 34 24 -3 3 -14 -1 -25
-9z"/>
<path d="M1492 331 c8 -14 8 -32 0 -76 -14 -70 -15 -85 -3 -85 5 0 8 11 6 25
-1 14 2 28 7 31 5 3 7 12 4 20 -3 8 -2 14 3 14 12 0 8 73 -4 82 -18 14 -25 8
-13 -11z"/>
<path d="M1793 335 c0 -8 4 -12 9 -9 4 3 8 9 8 15 0 5 -4 9 -8 9 -5 0 -9 -7
-9 -15z"/>
<path d="M260 330 c0 -5 5 -10 11 -10 5 0 7 5 4 10 -3 6 -8 10 -11 10 -2 0 -4
-4 -4 -10z"/>
<path d="M1448 333 c7 -3 16 -2 19 1 4 3 -2 6 -13 5 -11 0 -14 -3 -6 -6z"/>
<path d="M247 309 c7 -7 15 -10 18 -7 3 3 -2 9 -12 12 -14 6 -15 5 -6 -5z"/>
<path d="M349 303 c-13 -16 -12 -17 4 -4 16 13 21 21 13 21 -2 0 -10 -8 -17
-17z"/>
<path d="M611 311 c-8 -5 -9 -11 -3 -15 5 -3 15 1 22 9 14 16 3 20 -19 6z"/>
<path d="M900 310 c-9 -6 -10 -10 -3 -10 6 0 15 5 18 10 8 12 4 12 -15 0z"/>
<path d="M1290 310 c0 -5 5 -10 11 -10 5 0 7 5 4 10 -3 6 -8 10 -11 10 -2 0
-4 -4 -4 -10z"/>
<path d="M1690 298 c0 -16 0 -30 0 -33 0 -3 3 -6 7 -7 10 -4 11 39 1 54 -5 9
-8 4 -8 -14z"/>
<path d="M1753 301 c0 -11 5 -18 9 -15 4 3 5 11 1 19 -7 21 -12 19 -10 -4z"/>
<path d="M1814 312 c3 -6 -2 -13 -11 -15 -16 -4 -16 -5 -1 -6 21 -1 32 15 17
25 -7 4 -9 3 -5 -4z"/>
<path d="M1645 300 c3 -5 12 -7 20 -3 21 7 19 13 -6 13 -11 0 -18 -4 -14 -10z"/>
<path d="M223 285 c-3 -9 -3 -18 -1 -21 3 -3 8 4 11 16 6 23 -1 27 -10 5z"/>
<path d="M461 286 c-9 -10 -8 -15 3 -19 11 -4 13 -1 9 10 -5 12 -3 14 7 8 9
-5 11 -4 6 3 -9 15 -11 15 -25 -2z"/>
<path d="M854 274 c-4 -14 -2 -30 4 -36 7 -7 10 -5 8 8 -2 11 1 27 6 37 5 11
5 17 -1 17 -6 0 -14 -12 -17 -26z"/>
<path d="M271 277 c-1 -25 27 -77 42 -77 9 0 9 2 0 8 -7 4 -19 26 -27 47 -8
22 -15 32 -15 22z"/>
<path d="M395 270 c-10 -11 -15 -20 -10 -20 4 0 1 -7 -6 -17 -11 -13 -11 -15
-1 -12 16 5 57 69 45 69 -6 0 -18 -9 -28 -20z"/>
<path d="M1560 268 c-12 -22 -12 -22 6 -6 10 10 15 20 12 24 -4 3 -12 -5 -18
-18z"/>
<path d="M1630 280 c0 -5 5 -10 11 -10 5 0 7 5 4 10 -3 6 -8 10 -11 10 -2 0
-4 -4 -4 -10z"/>
<path d="M322 267 c-7 -8 -7 -18 -2 -27 6 -8 10 -10 11 -5 0 6 2 18 4 28 4 20
1 21 -13 4z"/>
<path d="M510 251 c0 -10 -7 -21 -15 -25 -8 -3 -15 -11 -14 -18 0 -10 2 -10 6
0 2 6 11 12 19 12 8 0 14 10 14 25 0 14 -2 25 -5 25 -3 0 -5 -9 -5 -19z"/>
<path d="M582 254 c-7 -8 -8 -14 -3 -14 10 0 25 19 20 25 -2 1 -10 -3 -17 -11z"/>
<path d="M1747 263 c-11 -11 -8 -20 7 -20 8 0 12 6 9 14 -6 15 -7 15 -16 6z"/>
<path d="M442 248 c-15 -15 -15 -28 0 -28 6 0 8 3 5 7 -4 3 -2 12 4 20 14 16
7 17 -9 1z"/>
<path d="M706 243 c-6 -14 -5 -15 5 -6 7 7 10 15 7 18 -3 3 -9 -2 -12 -12z"/>
<path d="M1320 252 c0 -4 9 -18 20 -32 11 -14 20 -33 20 -42 0 -10 4 -18 9
-18 16 0 5 52 -12 65 -9 7 -14 14 -11 17 2 3 -2 8 -11 11 -8 4 -15 3 -15 -1z"/>
<path d="M1630 251 c0 -5 -3 -16 -6 -25 -3 -9 -2 -16 4 -16 5 0 12 11 14 25 3
14 1 25 -3 25 -5 0 -9 -4 -9 -9z"/>
<path d="M1277 243 c-4 -3 -7 -18 -7 -31 0 -31 12 -22 15 13 3 27 2 29 -8 18z"/>
<path d="M950 232 c0 -5 7 -9 15 -9 8 0 12 4 9 9 -3 4 -9 8 -15 8 -5 0 -9 -4
-9 -8z"/>
<path d="M1205 208 c-12 -48 -13 -68 -6 -73 4 -2 8 11 9 28 2 17 7 36 12 41
12 12 13 36 1 36 -5 0 -12 -15 -16 -32z"/>
<path d="M1547 226 c-3 -8 0 -19 6 -24 9 -8 12 -4 12 14 0 27 -10 32 -18 10z"/>
<path d="M1680 229 c0 -5 5 -7 10 -4 6 3 10 8 10 11 0 2 -4 4 -10 4 -5 0 -10
-5 -10 -11z"/>
<path d="M550 215 c-11 -13 -10 -14 4 -9 9 3 16 10 16 15 0 13 -6 11 -20 -6z"/>
<path d="M623 214 c-7 -7 -13 -21 -13 -30 0 -13 3 -14 15 -4 8 7 13 16 10 20
-3 5 0 10 7 12 7 3 8 7 3 10 -6 3 -16 0 -22 -8z"/>
<path d="M898 223 c7 -3 16 -2 19 1 4 3 -2 6 -13 5 -11 0 -14 -3 -6 -6z"/>
<path d="M1051 216 c-9 -11 -9 -16 0 -22 7 -4 9 -3 5 4 -3 5 0 12 6 15 7 2 10
7 7 11 -3 4 -12 0 -18 -8z"/>
<path d="M848 213 c6 -2 18 -2 25 0 6 3 1 5 -13 5 -14 0 -19 -2 -12 -5z"/>
<path d="M1085 194 c-9 -15 -12 -23 -6 -20 11 7 35 46 28 46 -3 0 -12 -12 -22
-26z"/>
<path d="M5 199 c-4 -6 -5 -12 -2 -15 2 -3 7 2 10 11 7 17 1 20 -8 4z"/>
<path d="M680 195 c0 -8 -5 -15 -11 -15 -5 0 -7 -4 -4 -10 3 -5 11 -10 16 -10
6 0 7 5 4 10 -3 6 -2 10 3 10 5 0 9 7 9 15 0 8 -4 15 -9 15 -4 0 -8 -7 -8 -15z"/>
<path d="M821 186 c-9 -11 -9 -16 1 -22 7 -4 10 -4 6 1 -4 4 -3 14 3 22 6 7 9
13 6 13 -2 0 -10 -6 -16 -14z"/>
<path d="M938 180 c-10 -6 -14 -18 -11 -30 3 -11 10 -17 15 -14 6 4 6 10 -1
17 -7 7 -5 14 7 23 20 16 14 18 -10 4z"/>
<path d="M1030 176 c0 -9 5 -16 10 -16 6 0 10 4 10 9 0 6 -4 13 -10 16 -5 3
-10 -1 -10 -9z"/>
<path d="M1133 176 c3 -8 1 -17 -6 -20 -8 -3 -8 -5 -1 -5 6 -1 17 5 23 13 9
11 8 15 -5 20 -11 4 -15 2 -11 -8z"/>
<path d="M1720 154 c-58 -18 -99 -33 -92 -33 17 -1 192 49 212 60 30 17 -13 7
-120 -27z"/>
<path d="M290 170 c8 -5 20 -10 25 -10 6 0 3 5 -5 10 -8 5 -19 10 -25 10 -5 0
-3 -5 5 -10z"/>
<path d="M1257 160 c3 -11 9 -20 14 -20 4 0 7 9 6 20 -1 11 -7 20 -13 20 -7 0
-10 -8 -7 -20z"/>
<path d="M1037 139 c7 -7 15 -10 18 -7 3 3 -2 9 -12 12 -14 6 -15 5 -6 -5z"/>
<path d="M415 130 c11 -5 27 -9 35 -9 9 0 8 4 -5 9 -11 5 -27 9 -35 9 -9 0 -8
-4 5 -9z"/>
<path d="M1588 113 c7 -3 16 -2 19 1 4 3 -2 6 -13 5 -11 0 -14 -3 -6 -6z"/>
<path d="M1470 95 c-30 -7 -46 -13 -35 -13 11 -1 47 5 80 12 33 8 49 14 35 14
-14 0 -50 -6 -80 -13z"/>
<path d="M86 92 c-3 -5 1 -9 9 -9 8 0 12 4 9 9 -3 4 -7 8 -9 8 -2 0 -6 -4 -9
-8z"/>
<path d="M578 93 c6 -2 18 -2 25 0 6 3 1 5 -13 5 -14 0 -19 -2 -12 -5z"/>
<path d="M628 83 c6 -2 18 -2 25 0 6 3 1 5 -13 5 -14 0 -19 -2 -12 -5z"/>
<path d="M1358 73 c6 -2 18 -2 25 0 6 3 1 5 -13 5 -14 0 -19 -2 -12 -5z"/>
<path d="M678 53 c6 -2 18 -2 25 0 6 3 1 5 -13 5 -14 0 -19 -2 -12 -5z"/>
<path d="M108 31 c4 -10 7 -11 10 -3 2 7 8 12 14 12 6 0 8 -6 5 -13 -3 -8 1
-14 8 -14 10 0 11 5 4 18 -11 22 -49 22 -41 0z"/>
<path d="M743 43 c9 -2 23 -2 30 0 6 3 -1 5 -18 5 -16 0 -22 -2 -12 -5z"/>
<path d="M840 40 c20 -13 300 -13 300 0 0 6 -59 10 -157 10 -106 0 -153 -4
-143 -10z"/>
<path d="M1175 40 c-4 -7 3 -8 22 -4 38 9 42 14 10 14 -14 0 -29 -5 -32 -10z"/>
</g>
</svg>
